<svg xmlns="http://www.w3.org/2000/svg" width="28" height="29" viewBox="0 0 18 19" fill="none">
  <g clip-path="url(#clip0_16_163)">
    <path d="M8.68807 2.60454C9.57509 2.60454 10.4043 2.77814 11.1106 3.10938C11.0587 1.82354 9.99423 0.796875 8.6881 0.796875C7.38198 0.796875 6.31748 1.82358 6.26562 3.10935C6.97191 2.77814 7.80104 2.60454 8.68807 2.60454Z" fill="#B57A4E"/>
    <path d="M7.42838 2.72896C7.61527 1.80751 8.33049 1.07661 9.24663 0.861809C9.06362 0.818762 8.87625 0.796973 8.68824 0.796875C7.38212 0.796875 6.31766 1.82354 6.26562 3.10935C6.62446 2.94112 7.01488 2.81368 7.42838 2.72896Z" fill="#9B5729"/>
    <path d="M14.3538 16.3952C13.944 16.3731 13.5618 16.2042 13.2696 15.9137L11.2659 13.9219H10.5395L8.69006 16.7536L6.84048 13.9219H5.61981C4.18814 13.9219 3.02344 15.0797 3.02344 16.5029V17.4394C3.02345 17.4636 3.02822 17.4875 3.03748 17.5098C3.04674 17.5321 3.0603 17.5524 3.07739 17.5694C3.09448 17.5865 3.11477 17.6 3.13709 17.6092C3.15941 17.6185 3.18333 17.6232 3.20748 17.6232H14.1727C14.2743 17.6232 14.3565 17.5409 14.3565 17.4394V16.5029C14.3565 16.4667 14.3553 16.4309 14.3538 16.3952Z" fill="#FF6666"/>
    <path d="M5.88347 14.0637L5.79076 13.9219H5.61966C4.18813 13.9219 3.02344 15.0797 3.02344 16.5027V17.4394C3.02345 17.4636 3.02822 17.4875 3.03748 17.5098C3.04674 17.5321 3.0603 17.5523 3.07739 17.5694C3.09448 17.5865 3.11477 17.6 3.13709 17.6092C3.15941 17.6184 3.18333 17.6232 3.20748 17.6232H4.31859C4.21699 17.6232 4.13473 17.5409 4.13473 17.4394V16.5027C4.13473 15.3745 4.86696 14.4138 5.88347 14.0637V14.0637Z" fill="#FE3745"/>
    <path d="M11.2641 13.9219H10.5378L8.68836 16.7536L6.83879 13.9219H5.78906L7.9524 17.2342C8.02074 17.3387 8.11053 17.4274 8.21581 17.4945C8.32109 17.5615 8.43944 17.6054 8.563 17.6232H8.81348C8.93705 17.6054 9.05541 17.5615 9.16071 17.4945C9.266 17.4274 9.35581 17.3387 9.42415 17.2342L11.4602 14.1167L11.2641 13.9219Z" fill="#DEF9FF"/>
    <path d="M9.7433 13.6734V12.9532C9.54686 12.9871 9.34787 13.0041 9.14852 13.0041H8.23819C8.03534 13.0041 7.83663 12.9865 7.64327 12.9531V13.6734C7.64327 13.8102 7.5312 13.9215 7.39359 13.9215H6.84375L8.69314 16.7532L10.5427 13.9215H9.99298C9.85537 13.9215 9.7433 13.8101 9.7433 13.6734V13.6734Z" fill="#F8D5AB"/>
    <path d="M7.56403 13.8438C7.51782 13.887 7.45689 13.9111 7.39359 13.911H6.84375L8.69328 16.7427L9.07533 16.1576L7.56403 13.8438Z" fill="#EAC092"/>
    <path d="M8.68591 2.60156C6.10663 2.60156 4.01562 4.07058 4.01562 6.60623V7.81477C4.07776 7.79788 4.14185 7.78925 4.20624 7.78911H4.79568V6.99686C4.79568 6.88766 4.88508 6.79882 4.99508 6.79882H8.07855C8.64749 6.79882 9.18939 6.49901 9.49304 6.01631C9.51098 5.98769 9.53594 5.96412 9.56555 5.94785C9.59515 5.93158 9.62843 5.92313 9.66221 5.92332C9.69595 5.92317 9.72918 5.93162 9.75874 5.9479C9.7883 5.96417 9.81322 5.98772 9.83114 6.01631C10.1348 6.49901 10.6768 6.79868 11.2457 6.79868H12.3768C12.4869 6.79868 12.5762 6.88752 12.5762 6.99686V7.78893H13.1658C13.2317 7.78893 13.2954 7.79842 13.3563 7.81477V6.60627C13.3561 4.07061 11.2653 2.6016 8.68595 2.6016L8.68591 2.60156Z" fill="#B57A4E"/>
    <path d="M8.68589 2.60156C6.10661 2.60156 4.01562 4.07057 4.01562 6.60621V7.81474C4.07776 7.79785 4.14185 7.78922 4.20624 7.78908H4.79567V6.99683C4.79567 6.88764 4.88507 6.7988 4.99508 6.7988H5.12772V6.60625C5.12772 4.25559 6.92466 2.82189 9.24195 2.62508C9.05703 2.60939 8.87151 2.60156 8.68592 2.6016L8.68589 2.60156Z" fill="#9B5729"/>
    <path d="M13.6983 9.8486C13.8188 9.72144 13.8929 9.55128 13.8929 9.36379V8.50151C13.8929 8.10811 13.5685 7.78906 13.1683 7.78906H12.5965V9.18161C12.8167 9.20922 13.0286 9.28288 13.2184 9.3978C13.4083 9.51272 13.5718 9.66631 13.6983 9.8486ZM3.79808 9.95034C3.80458 9.91315 3.82173 9.87864 3.84743 9.85098C3.87314 9.82332 3.9063 9.8037 3.94292 9.79449C4.22762 9.72309 4.51151 9.69985 4.78407 9.72196C4.78195 9.67466 4.78086 9.62732 4.7808 9.57997V7.78906H4.20895C3.80876 7.78906 3.48438 8.10807 3.48438 8.50151V9.36383C3.48438 9.60718 3.60869 9.82181 3.79808 9.95034Z" fill="#FFE2B8"/>
    <path d="M11.0024 12.1843C10.9678 12.1502 10.9404 12.1095 10.9217 12.0646C10.903 12.0198 10.8934 11.9717 10.8935 11.9231C10.8935 11.8245 10.9323 11.7318 11.0024 11.662C11.0252 11.6395 11.0508 11.62 11.0786 11.6041C10.9082 11.3481 10.8174 11.0473 10.8177 10.7397C10.8177 9.87232 11.5251 9.16919 12.3975 9.16919C12.4651 9.16919 12.5316 9.17401 12.597 9.18209V6.99747C12.597 6.87826 12.4997 6.78172 12.38 6.78172H11.2488C10.686 6.78172 10.1496 6.48507 9.84912 6.00757C9.82955 5.97651 9.80242 5.95091 9.77026 5.93319C9.7381 5.91547 9.70197 5.9062 9.66526 5.90625C9.62851 5.90618 9.59235 5.91544 9.56016 5.93316C9.52797 5.95088 9.5008 5.97648 9.48121 6.00757C9.18087 6.48507 8.64431 6.78172 8.0817 6.78172H4.99824C4.87835 6.78172 4.78125 6.87826 4.78125 6.99747L4.78441 9.72248C5.3086 9.7652 5.79049 9.97642 6.15341 10.3372C6.70508 10.8855 6.90892 11.7069 6.69879 12.5342C6.6906 12.5661 6.67443 12.5953 6.65182 12.6192C7.12601 12.8624 7.66408 13 8.23386 13H9.14434C9.89968 13 10.5991 12.7583 11.1681 12.3491L11.0024 12.1843Z" fill="#FFE2B8"/>
    <path d="M5.73458 6.78125H4.99823C4.87835 6.78125 4.78125 6.87779 4.78125 6.997L4.78441 9.72214C5.04833 9.74359 5.30132 9.80799 5.53395 9.91248C5.52309 9.80198 5.51763 9.69103 5.5176 9.58V6.997C5.5176 6.87779 5.6147 6.78125 5.73458 6.78125Z" fill="#FFC987"/>
    <path d="M15.6829 7.2413C15.6409 7.2413 15.6031 7.21563 15.5876 7.1765C15.3812 6.65725 15.2245 6.50055 14.7051 6.29401C14.6861 6.28639 14.6698 6.27324 14.6583 6.25625C14.6468 6.23926 14.6406 6.21922 14.6406 6.1987C14.6406 6.17819 14.6468 6.15815 14.6583 6.14116C14.6698 6.12417 14.6861 6.11102 14.7051 6.10339C15.2245 5.89703 15.3812 5.7403 15.5876 5.2208C15.6031 5.18177 15.6409 5.15625 15.6829 5.15625C15.7249 5.15625 15.7627 5.18177 15.7783 5.2208C15.9846 5.7403 16.1415 5.89699 16.6607 6.10339C16.6798 6.11096 16.6962 6.12408 16.7078 6.14108C16.7193 6.15807 16.7255 6.17815 16.7255 6.1987C16.7255 6.24075 16.6999 6.27851 16.6607 6.29401C16.1415 6.50041 15.9847 6.65711 15.7783 7.1765C15.7707 7.19561 15.7576 7.212 15.7406 7.22356C15.7236 7.23511 15.7035 7.24129 15.6829 7.2413Z" fill="#FFAF10"/>
    <path d="M15.0702 5.94189C15.067 5.94066 15.0641 5.93901 15.0611 5.9375C14.9643 5.99558 14.8486 6.04873 14.7053 6.10572C14.6663 6.12126 14.6406 6.15916 14.6406 6.20117C14.6406 6.24318 14.6661 6.28098 14.7053 6.29648C15.2247 6.50288 15.3814 6.65957 15.5877 7.17897C15.6033 7.2181 15.641 7.24366 15.6831 7.24366C15.7251 7.24366 15.7629 7.2181 15.7784 7.17897C15.8365 7.03283 15.8906 6.91555 15.9499 6.81764C15.7449 6.30376 15.5872 6.14735 15.0702 5.94189Z" fill="#F39600"/>
    <path d="M2.18308 7.25706C2.16255 7.25704 2.1425 7.25087 2.12552 7.23934C2.10853 7.22781 2.0954 7.21145 2.0878 7.19237C1.88137 6.67287 1.72468 6.51618 1.20531 6.30978C1.18622 6.30221 1.16983 6.28908 1.1583 6.27208C1.14676 6.25508 1.14061 6.23501 1.14063 6.21447C1.14063 6.17246 1.16618 6.13466 1.20531 6.11916C1.72468 5.91276 1.88137 5.75607 2.0878 5.23667C2.09539 5.21758 2.10852 5.20121 2.12551 5.18966C2.14249 5.17811 2.16254 5.17192 2.18308 5.17188C2.22513 5.17188 2.26288 5.19754 2.27839 5.23667C2.48479 5.75607 2.64152 5.91272 3.16088 6.11916C3.17992 6.12678 3.19625 6.13993 3.20775 6.15692C3.21925 6.17391 3.2254 6.19395 3.2254 6.21447C3.2254 6.23498 3.21925 6.25503 3.20775 6.27201C3.19625 6.289 3.17992 6.30216 3.16088 6.30978C2.64148 6.51614 2.48482 6.67287 2.27839 7.19237C2.27079 7.21145 2.25766 7.22781 2.24067 7.23934C2.22369 7.25087 2.20361 7.25704 2.18308 7.25706Z" fill="#FFCB00"/>
    <path d="M1.5681 5.94748C1.56521 5.94636 1.56261 5.94485 1.56001 5.94348C1.46333 6.00131 1.34795 6.05432 1.20514 6.11117C1.1861 6.11879 1.16977 6.13195 1.15827 6.14893C1.14677 6.16592 1.14062 6.18597 1.14062 6.20648C1.14062 6.22699 1.14677 6.24704 1.15827 6.26403C1.16977 6.28101 1.1861 6.29417 1.20514 6.30179C1.72451 6.50816 1.8812 6.66488 2.08763 7.18439C2.09526 7.20342 2.10842 7.21974 2.1254 7.23123C2.14238 7.24272 2.16242 7.24886 2.18293 7.24886C2.20343 7.24886 2.22347 7.24272 2.24045 7.23123C2.25744 7.21974 2.27059 7.20342 2.27822 7.18439C2.33591 7.03923 2.38973 6.92251 2.44851 6.82502C2.2432 6.30963 2.08584 6.15318 1.5681 5.94748ZM3.69079 3.05026C3.67413 3.05027 3.65784 3.04528 3.64404 3.03592C3.63025 3.02656 3.61959 3.01327 3.61345 2.99777C3.44611 2.5766 3.31905 2.44944 2.89785 2.28216C2.88236 2.27601 2.86909 2.26535 2.85973 2.25156C2.85038 2.23778 2.84538 2.2215 2.84538 2.20484C2.84538 2.18818 2.85038 2.1719 2.85973 2.15811C2.86909 2.14433 2.88236 2.13367 2.89785 2.12751C3.31902 1.96013 3.44607 1.83308 3.61349 1.41191C3.61961 1.39641 3.63025 1.38312 3.64403 1.37375C3.65781 1.36438 3.67408 1.35938 3.69074 1.35938C3.7074 1.35938 3.72368 1.36438 3.73745 1.37375C3.75123 1.38312 3.76187 1.39641 3.768 1.41191C3.93538 1.83308 4.0624 1.96013 4.4836 2.12751C4.49907 2.13367 4.51234 2.14433 4.52169 2.15812C4.53103 2.1719 4.53603 2.18817 4.53603 2.20482C4.53603 2.22147 4.53103 2.23774 4.52169 2.25152C4.51234 2.26531 4.49907 2.27597 4.4836 2.28213C4.06243 2.44958 3.93538 2.5766 3.76796 2.99777C3.76184 3.01324 3.7512 3.02652 3.73745 3.03587C3.72369 3.04523 3.70743 3.05024 3.69079 3.05026Z" fill="#FFAF10"/>
    <path d="M3.96492 2.62075C3.80313 2.21385 3.67829 2.08131 3.29048 1.92188C3.19327 2.0007 3.07005 2.0632 2.8962 2.13225C2.88074 2.13843 2.86747 2.1491 2.85812 2.16288C2.84878 2.17667 2.84377 2.19294 2.84375 2.20959C2.84375 2.24377 2.86463 2.27428 2.8962 2.28676C3.31738 2.45418 3.44443 2.58134 3.61184 3.00254C3.61797 3.01804 3.62861 3.03133 3.64239 3.0407C3.65616 3.05007 3.67244 3.05507 3.6891 3.05507C3.70576 3.05507 3.72203 3.05007 3.73581 3.0407C3.74959 3.03133 3.76023 3.01804 3.76636 3.00254C3.83224 2.83689 3.892 2.717 3.96573 2.62198L3.96492 2.62075Z" fill="#F39600"/>
    <path d="M3.18816 12.5234L0.362476 15.6312C0.331789 15.6616 0.30743 15.6978 0.290807 15.7377C0.274184 15.7776 0.265625 15.8204 0.265625 15.8636C0.265625 15.9068 0.274184 15.9495 0.290807 15.9894C0.30743 16.0293 0.331789 16.0655 0.362476 16.0959C0.49157 16.2243 0.700855 16.2243 0.829949 16.0959L3.95625 13.287L3.18816 12.5234Z" fill="#C7C8CA"/>
    <path d="M3.48421 12.8177L3.18816 12.5234L0.362476 15.6312C0.331789 15.6616 0.30743 15.6978 0.290807 15.7377C0.274184 15.7775 0.265625 15.8203 0.265625 15.8635C0.265625 15.9067 0.274184 15.9495 0.290807 15.9894C0.30743 16.0293 0.331789 16.0655 0.362476 16.0959C0.49157 16.2243 0.700855 16.2243 0.829949 16.0959L0.972226 15.968C0.926097 15.9049 0.904135 15.8273 0.910327 15.7494C0.91652 15.6715 0.950457 15.5983 1.00598 15.5433L3.48421 12.8177Z" fill="#A7A9AC"/>
    <path d="M6.15162 10.3416C5.59984 9.79319 4.77367 9.59048 3.94145 9.79938C3.90128 9.80938 3.86531 9.83186 3.83871 9.86359C3.81211 9.89532 3.79625 9.93466 3.79341 9.97597L3.67188 11.8177L4.66655 12.8065L6.51939 12.6856C6.56072 12.683 6.60015 12.6673 6.63204 12.6409C6.66393 12.6145 6.68664 12.5787 6.69693 12.5385C6.90706 11.7113 6.70326 10.8901 6.15162 10.3416Z" fill="#9B5729"/>
    <path d="M4.51688 9.98438C4.36578 9.98933 4.21324 10.0086 4.06133 10.0434L3.94531 11.8014L4.45286 10.9523L4.51688 9.98438Z" fill="#7F441C"/>
    <path d="M4.35538 13.4398C4.28682 13.5081 4.17464 13.5081 4.10598 13.4398L3.03575 12.376C3.01946 12.3597 3.00654 12.3404 2.99773 12.3191C2.98891 12.2978 2.98438 12.275 2.98438 12.252C2.98438 12.229 2.98891 12.2062 2.99773 12.1849C3.00654 12.1637 3.01946 12.1444 3.03575 12.1281L3.38844 11.7778C3.45696 11.7095 3.56914 11.7095 3.6377 11.7778L4.70785 12.8415C4.72415 12.8578 4.73707 12.8771 4.74589 12.8983C4.75471 12.9196 4.75925 12.9424 4.75925 12.9654C4.75925 12.9885 4.75471 13.0113 4.74589 13.0325C4.73707 13.0538 4.72415 13.0731 4.70785 13.0894L4.35538 13.4398Z" fill="#8A8C8E"/>
    <path d="M3.4619 12.5994L3.85635 12.2073C3.89931 12.1646 3.95753 12.1466 4.0141 12.1518L3.63768 11.7778C3.56916 11.7095 3.45698 11.7095 3.38832 11.7778L3.03577 12.1282C3.01948 12.1445 3.00655 12.1638 2.99773 12.1851C2.98891 12.2063 2.98438 12.2291 2.98438 12.2521C2.98438 12.2752 2.98891 12.298 2.99773 12.3192C3.00655 12.3405 3.01948 12.3598 3.03577 12.3761L3.40477 12.7428C3.40402 12.7162 3.40869 12.6898 3.41852 12.6652C3.42834 12.6405 3.44311 12.6181 3.4619 12.5994Z" fill="#6D6E71"/>
    <path d="M12.4021 9.4375C11.6763 9.4375 11.0859 10.0237 11.0859 10.7444C11.0858 10.9357 11.1281 11.1247 11.2098 11.2977C11.2682 11.2921 11.3271 11.2946 11.3849 11.305C11.3782 11.2676 11.3749 11.2297 11.3749 11.1918C11.3749 11.0223 11.4411 10.8632 11.5614 10.7435C11.6203 10.6847 11.6903 10.6381 11.7673 10.6063C11.8442 10.5746 11.9267 10.5584 12.01 10.5586C12.1793 10.5586 12.3387 10.6242 12.4587 10.7435L12.5951 10.8791C12.6071 10.7292 12.6715 10.59 12.7795 10.4825C12.8384 10.4236 12.9084 10.377 12.9853 10.3452C13.0623 10.3135 13.1448 10.2973 13.2281 10.2975C13.3976 10.2975 13.5569 10.3631 13.6768 10.4823L13.6952 10.5006C13.5798 9.89608 13.0441 9.4375 12.4021 9.4375Z" fill="#FF99A3"/>
    <path d="M11.2677 11.2928C11.3067 11.2928 11.3453 11.2962 11.383 11.3031C11.3763 11.2657 11.3729 11.2278 11.3729 11.1898C11.3729 11.0317 11.4312 10.8831 11.5366 10.7667C11.5365 10.7586 11.5361 10.7505 11.5361 10.7424C11.5361 9.99734 12.0581 9.37402 12.7582 9.2128C12.6407 9.18566 12.5206 9.17193 12.4001 9.17188C11.5277 9.17188 10.8203 9.875 10.8203 10.7424C10.8203 10.9677 10.8684 11.1818 10.9543 11.3755C11.0498 11.3212 11.1578 11.2927 11.2677 11.2928V11.2928Z" fill="#FF6666"/>
    <path d="M16.2617 17.6246C16.2108 17.6246 16.162 17.6045 16.1259 17.5687L14.8899 16.3401C14.7456 16.3793 14.5968 16.3992 14.4473 16.3993C14.0026 16.3993 13.5847 16.2272 13.2707 15.9151L10.7417 13.4011C10.6714 13.3314 10.6328 13.2385 10.6328 13.1399C10.6328 13.0413 10.6714 12.9486 10.7416 12.8787C10.7761 12.8443 10.8171 12.817 10.8622 12.7984C10.9074 12.7799 10.9557 12.7704 11.0045 12.7705C11.1036 12.7705 11.197 12.8089 11.2671 12.8786L12.7003 14.3034L12.9151 14.0897L11.0045 12.1901C10.9698 12.156 10.9424 12.1154 10.9237 12.0705C10.905 12.0256 10.8954 11.9775 10.8955 11.9289C10.8955 11.8303 10.9343 11.7376 11.0045 11.6679C11.0746 11.5981 11.1679 11.5596 11.2671 11.5596C11.3664 11.5596 11.4597 11.5981 11.5299 11.6679L13.4407 13.5673L13.6556 13.3536L11.7448 11.4542C11.7102 11.42 11.6828 11.3793 11.6642 11.3345C11.6455 11.2896 11.6359 11.2415 11.636 11.193C11.636 11.0944 11.6747 11.0015 11.7448 10.9318C11.7793 10.8973 11.8203 10.87 11.8654 10.8515C11.9104 10.8329 11.9587 10.8234 12.0075 10.8236C12.1068 10.8236 12.2001 10.862 12.2702 10.9318L14.1812 12.8312L14.3961 12.6175L12.9629 11.193C12.9284 11.1588 12.901 11.1181 12.8823 11.0733C12.8636 11.0284 12.8541 10.9803 12.8541 10.9318C12.8541 10.8832 12.8637 10.8351 12.8824 10.7902C12.9011 10.7454 12.9285 10.7047 12.9631 10.6706C12.9976 10.6361 13.0385 10.6089 13.0836 10.5903C13.1287 10.5718 13.177 10.5623 13.2257 10.5625C13.3251 10.5625 13.4183 10.601 13.4886 10.6707L15.3262 12.4974V11.8379C15.3262 11.5816 15.5359 11.3733 15.7935 11.3733C16.0513 11.3733 16.2609 11.5816 16.2609 11.8379V13.4922C16.4994 13.8797 16.5666 14.3543 16.4452 14.7943L17.6801 16.0219C17.7162 16.0579 17.7366 16.1068 17.7366 16.1577C17.7366 16.2087 17.7162 16.2576 17.68 16.2935L16.3974 17.5685C16.3613 17.6044 16.3125 17.6246 16.2617 17.6246Z" fill="#FFC987"/>
    <path d="M8.57704 10.0909H9.0063C9.15203 10.0909 9.26998 9.97294 9.26998 9.82721C9.26998 9.68149 9.15203 9.56354 9.0063 9.56354H8.64075V8.92404C8.64075 8.85411 8.61297 8.78705 8.56352 8.7376C8.51407 8.68815 8.447 8.66037 8.37707 8.66037C8.34244 8.66036 8.30815 8.66717 8.27615 8.68041C8.24416 8.69366 8.21509 8.71308 8.1906 8.73757C8.16611 8.76206 8.14669 8.79113 8.13344 8.82312C8.1202 8.85512 8.11339 8.88941 8.1134 8.92404V9.62949C8.1134 9.88396 8.32146 10.0909 8.57701 10.0909L8.57704 10.0909ZM7.63591 8.11172C7.58658 8.06217 7.51961 8.03422 7.4497 8.03401C7.37978 8.03381 7.31265 8.06137 7.26304 8.11063C6.91559 8.45587 6.35037 8.45587 6.00303 8.11063C5.95342 8.06137 5.8863 8.03382 5.81639 8.03401C5.74649 8.03421 5.67952 8.06215 5.63019 8.11168C5.60577 8.13625 5.58643 8.16538 5.57326 8.19742C5.5601 8.22946 5.55338 8.26378 5.55348 8.29842C5.55358 8.33305 5.5605 8.36733 5.57385 8.39929C5.5872 8.43126 5.60672 8.46028 5.63128 8.48469C5.90747 8.75923 6.27015 8.89641 6.63296 8.89641C6.99578 8.89641 7.35863 8.75909 7.63478 8.48473C7.65935 8.46031 7.67887 8.43129 7.69222 8.39933C7.70557 8.36737 7.7125 8.3331 7.7126 8.29846C7.71271 8.26382 7.70599 8.2295 7.69283 8.19746C7.67967 8.16542 7.66033 8.13628 7.63591 8.11172ZM10.7504 8.89641C11.1131 8.89641 11.476 8.75923 11.7522 8.48473C11.8018 8.43543 11.8298 8.36844 11.8301 8.2985C11.8303 8.22856 11.8027 8.1614 11.7534 8.11179C11.7041 8.06218 11.6371 8.03419 11.5672 8.03397C11.4972 8.03375 11.4301 8.06133 11.3805 8.11063C11.033 8.45601 10.4678 8.45601 10.1203 8.11063C10.0958 8.08622 10.0667 8.06689 10.0346 8.05374C10.0026 8.04059 9.96828 8.03387 9.93365 8.03398C9.89902 8.03409 9.86476 8.04101 9.8328 8.05436C9.80085 8.06772 9.77185 8.08723 9.74744 8.11179C9.72303 8.13635 9.7037 8.16548 9.69054 8.19751C9.67739 8.22955 9.67068 8.26385 9.67079 8.29848C9.67089 8.33311 9.67782 8.36738 9.69117 8.39933C9.70452 8.43128 9.72404 8.46029 9.7486 8.48469C10.0248 8.75923 10.3874 8.89641 10.7504 8.89641ZM7.29489 10.6768C7.27047 10.7013 7.25113 10.7304 7.23798 10.7625C7.22482 10.7945 7.2181 10.8288 7.21821 10.8634C7.21831 10.898 7.22524 10.9323 7.23859 10.9643C7.25194 10.9962 7.27145 11.0252 7.29601 11.0496C7.67848 11.4298 8.18108 11.6197 8.68483 11.6197C9.19214 11.6197 9.70022 11.4271 10.0875 11.0423C10.1371 10.993 10.165 10.926 10.1653 10.856C10.1655 10.7861 10.1379 10.7189 10.0886 10.6693C9.98601 10.5661 9.81902 10.5657 9.71576 10.6683C9.149 11.2316 8.23026 11.2349 7.66776 10.6756C7.64321 10.6512 7.61408 10.6319 7.58206 10.6187C7.55003 10.6056 7.51572 10.5988 7.48109 10.5989C7.44646 10.599 7.41219 10.606 7.38025 10.6193C7.3483 10.6327 7.31929 10.6522 7.29489 10.6768ZM14.6042 6.53421C15.0563 6.71386 15.1594 6.81684 15.3389 7.26877C15.3946 7.40926 15.5282 7.50003 15.6793 7.50003C15.8304 7.50003 15.9639 7.40926 16.0196 7.26891C16.1994 6.8168 16.3024 6.71383 16.7543 6.53421C16.8948 6.47846 16.9854 6.34483 16.9854 6.19376C16.9854 6.04269 16.8948 5.9091 16.7545 5.85334C16.3024 5.67369 16.1994 5.57068 16.0196 5.11822C15.9926 5.05001 15.9458 4.99151 15.885 4.95037C15.8243 4.90923 15.7526 4.88735 15.6793 4.88759C15.6059 4.88732 15.5342 4.90922 15.4734 4.95041C15.4127 4.99161 15.3659 5.05018 15.339 5.11846C15.1594 5.57072 15.0562 5.67369 14.6043 5.85334C14.536 5.8802 14.4773 5.92707 14.4361 5.98781C14.3948 6.04855 14.3729 6.12034 14.3731 6.19376C14.3731 6.34497 14.4639 6.47846 14.6041 6.53421H14.6042ZM15.6793 5.64061C15.818 5.89549 15.9776 6.05507 16.2326 6.19376C15.9776 6.33249 15.818 6.49206 15.6793 6.74695C15.5406 6.49206 15.3812 6.33259 15.1261 6.19376C15.3812 6.05507 15.5406 5.89549 15.6793 5.64061ZM1.10598 6.5448C1.55809 6.72455 1.66121 6.82756 1.84071 7.2795C1.86752 7.34786 1.91438 7.40652 1.97514 7.44777C2.03589 7.48902 2.1077 7.51092 2.18113 7.51061C2.25451 7.5109 2.32626 7.48901 2.38699 7.44782C2.44771 7.40663 2.49458 7.34806 2.52145 7.27978C2.7011 6.82756 2.80411 6.72455 3.25629 6.5448C3.39667 6.48904 3.48727 6.35555 3.48727 6.20448C3.48727 6.05341 3.39667 5.91979 3.25629 5.86417C2.80407 5.68441 2.70106 5.5814 2.52145 5.12919C2.49459 5.06089 2.44773 5.0023 2.387 4.96108C2.32628 4.91987 2.25452 4.89795 2.18113 4.89821C2.02996 4.89821 1.89633 4.98898 1.84082 5.12919C1.66121 5.5814 1.55809 5.68441 1.10584 5.86417C1.03757 5.89106 0.979017 5.93793 0.93783 5.99865C0.896643 6.05937 0.874745 6.13111 0.875002 6.20448C0.875002 6.35541 0.965636 6.48904 1.10598 6.5448ZM2.18113 5.65133C2.31986 5.90621 2.47944 6.06579 2.73432 6.20448C2.47944 6.34317 2.31983 6.50275 2.18113 6.75763C2.04244 6.50275 1.88287 6.34317 1.62798 6.20448C1.88287 6.06579 2.04248 5.90621 2.18113 5.65133ZM2.79873 2.52515C3.15195 2.66549 3.22623 2.73978 3.36658 3.09299C3.39202 3.15772 3.43642 3.21325 3.49396 3.25231C3.55149 3.29137 3.61949 3.31215 3.68903 3.31191C3.75852 3.31216 3.82647 3.29141 3.88396 3.25237C3.94146 3.21333 3.98581 3.15782 4.0112 3.09314C4.15169 2.73981 4.22601 2.66549 4.57919 2.52515C4.6439 2.49974 4.69942 2.45536 4.73846 2.39785C4.7775 2.34033 4.79824 2.27235 4.79797 2.20283C4.7982 2.13333 4.77743 2.06537 4.7384 2.00786C4.69936 1.95035 4.64387 1.90597 4.57919 1.88052C4.22598 1.74003 4.15169 1.66571 4.01135 1.31264C3.9859 1.24794 3.94152 1.19244 3.88402 1.15338C3.82651 1.11433 3.75855 1.09355 3.68903 1.09375C3.61952 1.09348 3.55154 1.11422 3.49403 1.15325C3.43651 1.19229 3.39213 1.2478 3.36672 1.3125C3.22637 1.66571 3.15191 1.74 2.79831 1.88062C2.73372 1.90613 2.67833 1.95052 2.63938 2.00801C2.60043 2.0655 2.57973 2.1334 2.57998 2.20283C2.57974 2.27234 2.60049 2.3403 2.63952 2.39781C2.67855 2.45533 2.73404 2.49971 2.79873 2.52515ZM3.68889 1.85429C3.78146 2.00343 3.88844 2.11041 4.03743 2.20283C3.88844 2.29526 3.78146 2.40224 3.68889 2.55123C3.59646 2.40224 3.48962 2.29526 3.34049 2.20283C3.48962 2.11027 3.59646 2.00343 3.68889 1.85429Z" fill="black"/>
    <path d="M17.8658 15.8292L17.6939 15.6584C17.5906 15.5558 17.4236 15.5562 17.321 15.6595C17.2966 15.684 17.2773 15.7132 17.2641 15.7452C17.2509 15.7772 17.2442 15.8115 17.2443 15.8461C17.2444 15.8808 17.2513 15.915 17.2647 15.947C17.278 15.9789 17.2975 16.008 17.3221 16.0324L17.4426 16.1521L16.2615 17.3262L15.0757 16.1474C15.0428 16.1148 15.002 16.0914 14.9572 16.0795C14.9124 16.0677 14.8654 16.0679 14.8207 16.08C14.6989 16.1131 14.5733 16.13 14.4471 16.13C14.0727 16.13 13.7208 15.9853 13.4564 15.7224L10.9275 13.2085C10.9072 13.1883 10.8964 13.1626 10.8964 13.1343C10.8964 13.106 10.9072 13.0803 10.9275 13.0601C10.969 13.0189 11.0398 13.0189 11.081 13.06L12.5143 14.4848C12.5637 14.5339 12.6306 14.5614 12.7002 14.5614C12.7699 14.5614 12.8367 14.5338 12.8861 14.4847L13.1009 14.271C13.1507 14.2215 13.1786 14.1542 13.1786 14.0841C13.1786 14.0139 13.1507 13.9466 13.1009 13.897L11.1902 11.9977C11.1803 11.9881 11.1724 11.9765 11.1671 11.9638C11.1617 11.951 11.159 11.9373 11.159 11.9235C11.159 11.8952 11.1699 11.8695 11.1901 11.8493C11.2315 11.8081 11.3022 11.808 11.3437 11.8494L13.2547 13.7487C13.3574 13.851 13.5236 13.8509 13.6264 13.7487L13.8413 13.535C13.866 13.5105 13.8855 13.4814 13.8989 13.4493C13.9122 13.4172 13.9191 13.3828 13.9191 13.348C13.9191 13.3133 13.9122 13.2789 13.8989 13.2468C13.8855 13.2147 13.866 13.1856 13.8413 13.1611L11.9305 11.2617C11.9102 11.2415 11.8995 11.2158 11.8995 11.1875C11.8995 11.1592 11.9102 11.1335 11.9305 11.1133C11.972 11.072 12.0426 11.0721 12.0842 11.1133L13.995 13.0127C14.0444 13.0618 14.1112 13.0894 14.1809 13.0894C14.2505 13.0894 14.3174 13.0618 14.3668 13.0127L14.5817 12.7991C14.6064 12.7746 14.6259 12.7454 14.6393 12.7134C14.6526 12.6813 14.6595 12.6469 14.6595 12.6121C14.6596 12.5774 14.6527 12.5429 14.6394 12.5108C14.626 12.4788 14.6065 12.4496 14.5818 12.4251L13.1487 11.0006C13.1387 10.9909 13.1309 10.9794 13.1256 10.9666C13.1202 10.9539 13.1175 10.9401 13.1176 10.9263C13.1176 10.898 13.1285 10.8723 13.1487 10.8523C13.1901 10.8109 13.2608 10.8109 13.3025 10.8523L15.1401 12.679C15.177 12.7158 15.224 12.7408 15.2751 12.7508C15.3262 12.7609 15.3792 12.7556 15.4273 12.7355C15.4754 12.7155 15.5164 12.6817 15.5453 12.6384C15.5742 12.595 15.5896 12.5441 15.5896 12.492V11.8324C15.5897 11.7217 15.681 11.6315 15.7933 11.6315C15.9056 11.6315 15.997 11.7216 15.997 11.8324V13.4867C15.997 13.5356 16.0105 13.5834 16.0362 13.625C16.2364 13.9503 16.2927 14.349 16.1906 14.7188C16.1782 14.7639 16.178 14.8114 16.1901 14.8566C16.2021 14.9018 16.2259 14.9429 16.2591 14.9759L16.4431 15.1588C16.4676 15.1832 16.4967 15.2026 16.5287 15.2157C16.5608 15.2289 16.5951 15.2356 16.6297 15.2355C16.6643 15.2354 16.6986 15.2285 16.7305 15.2152C16.7625 15.2018 16.7915 15.1823 16.8159 15.1577C16.9185 15.0545 16.9181 14.8875 16.8148 14.7849L16.7348 14.7052C16.8176 14.265 16.7434 13.806 16.5243 13.4151V11.8324C16.5243 11.4308 16.1964 11.1041 15.7932 11.1041C15.3903 11.1043 15.0623 11.4308 15.0622 11.8324V11.8581L14.2209 11.0218C14.2353 10.9299 14.243 10.8359 14.243 10.7401C14.243 10.4231 14.1619 10.1248 14.0191 9.86448C14.1106 9.71386 14.1589 9.54098 14.1588 9.36473V8.50241C14.1588 8.12589 13.9417 7.79858 13.6248 7.63602V6.60727C13.6248 5.31734 13.118 4.22528 12.1592 3.4491C11.919 3.25465 11.653 3.08407 11.3661 2.93852C11.231 1.58883 10.0828 0.53125 8.69092 0.53125C7.29894 0.53125 6.15087 1.58883 6.01559 2.93852C5.72871 3.08407 5.46272 3.25465 5.22267 3.4491C4.26381 4.22528 3.75693 5.31731 3.75693 6.60727V7.63602C3.44013 7.79876 3.22301 8.12599 3.22301 8.50241V9.36473C3.22301 9.6406 3.33987 9.88962 3.52662 10.0673L3.43423 11.4687C3.34655 11.4843 3.26574 11.5263 3.20269 11.5892L2.85014 11.9397C2.80903 11.9803 2.77643 12.0287 2.75424 12.0821C2.73206 12.1355 2.72074 12.1928 2.72094 12.2506C2.72094 12.3545 2.7569 12.4527 2.82268 12.5314L0.169175 15.4498C0.0603718 15.56 -0.00043948 15.7088 2.39132e-06 15.8637C2.39132e-06 16.0222 0.0620887 16.1712 0.174695 16.2831C0.229788 16.3381 0.29521 16.3817 0.367205 16.4114C0.4392 16.4411 0.516348 16.4562 0.594217 16.456C0.748944 16.4565 0.897688 16.3963 1.00854 16.2883L3.94646 13.6487C4.02584 13.7163 4.12675 13.7533 4.23101 13.7531C4.28864 13.7533 4.34574 13.7421 4.39902 13.7201C4.45231 13.6982 4.50073 13.6659 4.54151 13.6252L4.89413 13.2747C4.95729 13.212 4.99976 13.1315 5.01584 13.044L6.54033 12.9446C6.58428 12.9417 6.62647 12.9325 6.66612 12.9182C6.89429 13.024 7.13257 13.1063 7.37734 13.1641V13.6539H5.62064C4.0437 13.6539 2.76073 14.93 2.76073 16.4984V17.4351C2.76073 17.6818 2.96151 17.8826 3.20828 17.8826H14.1736C14.4205 17.8826 14.6213 17.6818 14.6213 17.4351V16.6492C14.6835 16.6438 14.7455 16.6353 14.8069 16.6238L15.94 17.75C15.9822 17.7922 16.0324 17.8256 16.0876 17.8484C16.1427 17.8711 16.2018 17.8827 16.2615 17.8826C16.3829 17.8826 16.4971 17.8355 16.583 17.75L17.8657 16.4749C17.9514 16.3893 17.9997 16.2732 18 16.1521C17.9997 16.031 17.9514 15.9149 17.8658 15.8292ZM10.0048 13.1642C10.1305 13.1347 10.2539 13.0987 10.3743 13.0567C10.3713 13.0822 10.3691 13.1081 10.3691 13.1343C10.3691 13.3036 10.4354 13.4628 10.5557 13.5825L10.6277 13.654H10.0048V13.1642ZM13.6742 10.4781C13.6153 10.4192 13.5453 10.3726 13.4683 10.3409C13.3913 10.3092 13.3088 10.293 13.2255 10.2932C13.1423 10.293 13.0598 10.3092 12.9828 10.3409C12.9058 10.3727 12.8358 10.4193 12.7769 10.4782C12.6688 10.5857 12.6044 10.725 12.5925 10.8748L12.456 10.7392C12.3971 10.6804 12.3272 10.6337 12.2502 10.602C12.1732 10.5702 12.0907 10.554 12.0074 10.5543C11.9242 10.5541 11.8417 10.5703 11.7647 10.602C11.6877 10.6338 11.6177 10.6804 11.5588 10.7392C11.4995 10.7978 11.4525 10.8677 11.4205 10.9446C11.3884 11.0216 11.3721 11.1041 11.3723 11.1875C11.3723 11.2258 11.3757 11.2637 11.3823 11.3008C11.3246 11.2904 11.2657 11.2879 11.2072 11.2934C11.1254 11.1204 11.0831 10.9314 11.0834 10.7401C11.0834 10.0193 11.6737 9.43325 12.3995 9.43325C13.0414 9.43325 13.5771 9.8918 13.6925 10.4963L13.6742 10.4781ZM13.6317 9.36459C13.6317 9.36856 13.6312 9.37254 13.6312 9.37654C13.4116 9.17971 13.1481 9.03838 12.8626 8.96441V8.0535H13.1708C13.425 8.0535 13.6317 8.25481 13.6317 8.50227V9.36459ZM8.69103 1.05846C9.70385 1.05846 10.5561 1.7542 10.7892 2.68979C10.1525 2.46004 9.44028 2.33878 8.69103 2.33878C7.94178 2.33878 7.22958 2.46007 6.59275 2.68979C6.82594 1.75417 7.67821 1.05846 8.69103 1.05846ZM3.75049 8.50227C3.75049 8.25481 3.95728 8.0535 4.21139 8.0535H4.51954V9.45206C4.30418 9.45751 4.09009 9.48684 3.88121 9.53953C3.85322 9.54656 3.82643 9.5563 3.80105 9.56797C3.76788 9.50531 3.75053 9.43549 3.75049 9.36459V8.50227ZM0.651803 15.8998C0.648525 15.9028 0.645314 15.9059 0.64217 15.909C0.635889 15.9153 0.628412 15.9203 0.620177 15.9237C0.611942 15.9271 0.603116 15.9288 0.594217 15.9287C0.581455 15.9287 0.562787 15.9252 0.546439 15.909C0.530619 15.8935 0.527349 15.8758 0.527349 15.8637C0.527349 15.8516 0.530654 15.8339 0.546439 15.8183C0.549603 15.8152 0.552627 15.8119 0.55565 15.8087L3.19594 12.905L3.5707 13.2774L0.651803 15.8998ZM4.23101 13.1903L3.28548 12.2504L3.51329 12.024L4.45883 12.9639L4.23101 13.1903ZM6.45684 12.4216L4.77193 12.5314L4.74532 12.5049L5.68986 11.9468C5.71968 11.9292 5.74573 11.9059 5.76654 11.8782C5.78734 11.8505 5.80249 11.819 5.81111 11.7855C5.81973 11.752 5.82165 11.7171 5.81677 11.6828C5.8119 11.6485 5.80031 11.6155 5.78268 11.5857C5.76508 11.5559 5.74177 11.5299 5.7141 11.5091C5.68643 11.4883 5.65493 11.4731 5.6214 11.4645C5.58787 11.4558 5.55297 11.4539 5.5187 11.4588C5.48442 11.4636 5.45143 11.4752 5.42162 11.4928L4.36408 12.1176L4.99113 11.069C5.02546 11.009 5.0349 10.938 5.01742 10.8712C4.99993 10.8043 4.95692 10.747 4.89762 10.7115C4.83832 10.6761 4.76748 10.6653 4.70032 10.6815C4.63317 10.6978 4.57506 10.7397 4.53849 10.7983L3.97557 11.7398L3.94688 11.7111L4.05713 10.0396C4.23375 9.99892 4.41158 9.97832 4.58655 9.97832C5.1242 9.97832 5.6153 10.1724 5.9696 10.5245C6.44393 10.9959 6.62439 11.7021 6.45687 12.4215L6.45684 12.4216ZM6.34135 10.1505C5.99267 9.80387 5.54361 9.57746 5.04689 9.49094V7.04564H6.08207C6.22779 7.04564 6.34574 6.92765 6.34574 6.78196C6.34574 6.71203 6.31796 6.64497 6.26851 6.59552C6.21907 6.54607 6.152 6.51829 6.08207 6.51829H5.0002C4.73512 6.51829 4.51954 6.73334 4.51954 6.99772V7.52612H4.28441V6.60713C4.28441 5.48184 4.72359 4.53153 5.55462 3.85874C6.34532 3.21864 7.45922 2.86599 8.69107 2.86599C9.92291 2.86599 11.0368 3.21864 11.8275 3.85874C12.6584 4.53153 13.0976 5.48184 13.0976 6.60713V7.52612H12.8626V6.99772C12.8626 6.73334 12.647 6.51829 12.3819 6.51829H11.2508C10.7778 6.51829 10.3269 6.26889 10.0744 5.86775C9.98609 5.72685 9.83393 5.64293 9.66722 5.64293C9.50061 5.64293 9.34835 5.72685 9.26004 5.86747C9.00747 6.26889 8.55677 6.51843 8.08367 6.51843H7.31255C7.24262 6.51843 7.17555 6.54621 7.1261 6.59566C7.07665 6.64511 7.04887 6.71217 7.04887 6.7821C7.04887 6.85203 7.07665 6.9191 7.1261 6.96855C7.17555 7.018 7.24262 7.04578 7.31255 7.04578H8.08367C8.71248 7.04578 9.31263 6.72663 9.66722 6.20807C10.0218 6.72649 10.6219 7.04578 11.2508 7.04578H12.3352V8.90742C11.3484 8.94148 10.556 9.75022 10.556 10.7401C10.556 11.0334 10.626 11.3107 10.7498 11.5569C10.6729 11.6637 10.6317 11.7919 10.6318 11.9235C10.6318 12.0619 10.6768 12.1932 10.7588 12.3021C10.2855 12.578 9.73451 12.7366 9.14645 12.7366H8.23597C7.79141 12.7366 7.36802 12.6458 6.98334 12.4825C7.16932 11.6036 6.93366 10.7392 6.34135 10.1505ZM7.39137 14.1813C7.67455 14.1813 7.90472 13.9517 7.90472 13.6695V13.2491C8.01388 13.2587 8.12431 13.2639 8.23597 13.2639H9.14645C9.25796 13.2639 9.36839 13.2588 9.47741 13.2491V13.6695C9.47741 13.9517 9.70768 14.1813 9.9909 14.1813H10.0534L8.69107 16.2671L7.32875 14.1813H7.39137ZM3.28808 17.3552V16.4985C3.28808 15.2207 4.33441 14.1813 5.62064 14.1813H5.64908L7.72205 17.3552H3.28808ZM9.65994 17.3552L10.2495 16.4526C10.2878 16.394 10.3012 16.3227 10.2868 16.2542C10.2724 16.1858 10.2315 16.1259 10.1729 16.0876C10.1144 16.0494 10.043 16.036 9.97458 16.0503C9.90613 16.0647 9.84619 16.1056 9.80795 16.1642L9.20618 17.0857C9.15997 17.1564 9.09967 17.2168 9.02905 17.2632C8.95843 17.3096 8.879 17.341 8.79573 17.3553H8.58626C8.50302 17.3409 8.42362 17.3096 8.35303 17.2632C8.28243 17.2168 8.22215 17.1564 8.17595 17.0857L6.27888 14.1813H6.69882L8.47025 16.8936C8.49425 16.9302 8.527 16.9603 8.56553 16.9811C8.60407 17.0019 8.64719 17.0129 8.691 17.0129C8.7348 17.0129 8.77792 17.0019 8.81646 16.9811C8.85499 16.9603 8.88774 16.9302 8.91174 16.8936L10.6832 14.1813H11.1031L10.4739 15.1447C10.4356 15.2032 10.4222 15.2746 10.4366 15.3431C10.451 15.4115 10.492 15.4715 10.5505 15.5097C10.6723 15.5893 10.8358 15.555 10.9154 15.4331L11.5067 14.5278L13.0847 16.0964C13.3639 16.3739 13.7138 16.5553 14.0939 16.6249V17.3553L9.65994 17.3552Z" fill="black"/>
    <path d="M14.4492 16.132C14.5754 16.132 14.7011 16.1151 14.8226 16.082C14.9137 16.0574 15.0109 16.083 15.0778 16.1495L16.2636 17.3282L16.5266 17.0667L15.244 15.7917C15.0848 15.835 14.9207 15.857 14.7557 15.857C14.2653 15.857 13.8045 15.6672 13.458 15.3229L12.6936 14.563C12.627 14.561 12.5636 14.5338 12.5163 14.4868L11.0832 13.062C11.0418 13.021 10.9711 13.021 10.9295 13.0622C10.9196 13.0718 10.9117 13.0833 10.9064 13.0961C10.9011 13.1088 10.8984 13.1225 10.8984 13.1363C10.8984 13.1648 10.9093 13.1903 10.9296 13.2105L13.4586 15.7244C13.7229 15.9873 14.0747 16.132 14.4492 16.132Z" fill="#FFAF68"/>
  </g>
  <defs>
    <clipPath id="clip0_16_163">
      <rect width="28" height="28" fill="white" transform="translate(0 0.5)"/>
    </clipPath>
  </defs>
</svg>