<svg xmlns="http://www.w3.org/2000/svg" width="28" height="29" viewBox="0 0 18 19" fill="none">
  <g clip-path="url(#clip0_16_217)">
    <path d="M7.41294 14.0725C7.98743 13.537 8.07589 12.6982 7.61053 12.199C7.14516 11.6997 6.3022 11.7292 5.72771 12.2647C5.15322 12.8002 5.06475 13.6391 5.53012 14.1383C5.99548 14.6375 6.83845 14.6081 7.41294 14.0725Z" fill="#16A34A"/>
    <path d="M15.0223 14.0803C15.5968 13.5448 15.6853 12.706 15.2199 12.2068C14.7545 11.7075 13.9116 11.737 13.3371 12.2725C12.7626 12.8081 12.6741 13.6469 13.1395 14.1461C13.6049 14.6453 14.4478 14.6159 15.0223 14.0803Z" fill="#16A34A"/>
    <path d="M1.38809 7.52217C1.38809 7.19064 1.11933 6.92188 0.787793 6.92188C0.45626 6.92188 0.1875 7.19064 0.1875 7.52217C0.1875 7.8537 0.45626 8.12246 0.787793 8.12246C1.11933 8.12246 1.38809 7.8537 1.38809 7.52217Z" fill="#16A34A"/>
    <path d="M12.1816 13.0493C12.395 11.9946 13.3913 11.1565 14.4621 11.1565C15.4933 11.1565 16.2365 11.9338 16.2161 12.9333C17.3312 12.9625 17.6417 11.494 17.6417 11.494C17.7355 11.0834 17.8758 10.2829 17.9932 9.49711C18.0317 9.25452 18.0022 9.006 17.9078 8.77922C17.6163 8.09874 17.264 7.44594 16.8552 6.82875C16.4685 6.25184 15.8199 5.91012 15.0795 5.89781C14.6379 5.89078 14.2045 5.88656 13.8771 5.88656L13.8743 5.88375C13.8321 5.17781 13.3175 4.63711 12.595 4.57242C12.125 4.53059 10.2631 4.5 9.36941 4.5C9.01434 4.5 8.50492 4.50492 7.98953 4.51336V4.51125H1.78867C1.7098 4.5112 1.6317 4.5267 1.55883 4.55686C1.48595 4.58702 1.41974 4.63125 1.36397 4.68702C1.30821 4.74279 1.26398 4.809 1.23382 4.88187C1.20366 4.95475 1.18816 5.03285 1.1882 5.11172V5.11453C1.1882 5.27304 1.25117 5.42506 1.36325 5.53714C1.47534 5.64922 1.62735 5.71219 1.78586 5.71219H3.03496C3.18537 5.72328 3.32602 5.79082 3.42872 5.90127C3.53141 6.01172 3.58855 6.15692 3.58867 6.30773V6.3109C3.5889 6.38984 3.57357 6.46806 3.54354 6.54107C3.51351 6.61407 3.46938 6.68045 3.41367 6.73638C3.35796 6.79232 3.29177 6.83672 3.21889 6.86705C3.146 6.89738 3.06785 6.91303 2.98891 6.91313H2.34836C2.1892 6.91313 2.03656 6.97635 1.92401 7.0889C1.81147 7.20144 1.74824 7.35408 1.74824 7.51324C1.7482 7.59208 1.76368 7.67016 1.79382 7.74301C1.82396 7.81586 1.86816 7.88205 1.92389 7.93782C1.97962 7.99358 2.04579 8.03782 2.11862 8.068C2.19146 8.09818 2.26952 8.11371 2.34836 8.11371H2.98891C3.14816 8.11371 3.30089 8.17697 3.4135 8.28958C3.52611 8.40219 3.58938 8.55493 3.58938 8.71418C3.58938 8.87343 3.52611 9.02617 3.4135 9.13878C3.30089 9.25139 3.14816 9.31465 2.98891 9.31465H0.592656C0.433463 9.31465 0.280785 9.37786 0.168185 9.4904C0.0555853 9.60293 -0.0077193 9.75557 -0.0078125 9.91477C-0.0078125 10.074 0.055451 10.2268 0.168061 10.3394C0.28067 10.452 0.433402 10.5152 0.592656 10.5152H2.98891C3.14816 10.5152 3.30089 10.5785 3.4135 10.6911C3.52611 10.8037 3.58938 10.9564 3.58938 11.1157C3.58919 11.2748 3.52584 11.4274 3.41325 11.5398C3.30066 11.6523 3.14804 11.7155 2.98891 11.7155H2.24781C2.08865 11.7155 1.93601 11.7787 1.82347 11.8912C1.71092 12.0038 1.6477 12.1564 1.6477 12.3156C1.6477 12.4748 1.71091 12.6275 1.82344 12.7401C1.93598 12.8527 2.08862 12.916 2.24781 12.9161L4.61242 12.9143L4.80895 12.4246C5.21148 11.6821 6.01234 11.1561 6.86031 11.1561C7.93152 11.1561 8.69231 11.995 8.60863 13.0504H12.1812M6.22574 7.19262H5.41996C5.4192 7.19268 5.41848 7.19299 5.41791 7.19349C5.41734 7.194 5.41695 7.19468 5.4168 7.19543L5.34262 7.72277C5.34251 7.7232 5.3425 7.72364 5.34259 7.72407C5.34268 7.72449 5.34287 7.72489 5.34314 7.72524C5.34342 7.72558 5.34377 7.72585 5.34416 7.72603C5.34456 7.72622 5.34499 7.7263 5.34543 7.72629H5.9452C5.97463 7.72545 6.00389 7.7312 6.03083 7.7431C6.05776 7.75501 6.08171 7.77277 6.10091 7.7951C6.12011 7.81744 6.13408 7.84377 6.14181 7.87219C6.14954 7.90061 6.15083 7.93039 6.14559 7.95938C6.13531 8.02307 6.10315 8.0812 6.05464 8.12374C6.00613 8.16629 5.9443 8.19059 5.8798 8.19246H5.27934C5.27861 8.19244 5.27789 8.19268 5.27731 8.19313C5.27674 8.19358 5.27633 8.19421 5.27617 8.19492L5.16859 8.96098C5.15832 9.02468 5.12615 9.0828 5.07764 9.12534C5.02913 9.16789 4.96731 9.19219 4.90281 9.19406C4.87338 9.19491 4.84414 9.18917 4.81721 9.17726C4.79029 9.16536 4.76636 9.14758 4.74719 9.12524C4.72801 9.1029 4.71407 9.07656 4.70639 9.04814C4.69871 9.01971 4.69747 8.98994 4.70277 8.96098L4.98191 6.97395C4.99298 6.90667 5.02708 6.84534 5.07839 6.80044C5.1297 6.75555 5.19502 6.72988 5.26316 6.72785H6.29078C6.32021 6.727 6.34946 6.73274 6.37638 6.74465C6.40331 6.75656 6.42723 6.77433 6.44641 6.79667C6.46558 6.81901 6.47952 6.84536 6.4872 6.87378C6.49489 6.9022 6.49612 6.93198 6.49082 6.96094C6.4804 7.02432 6.44825 7.0821 6.39988 7.12438C6.35152 7.16665 6.28995 7.19078 6.22574 7.19262ZM8.37941 6.88605C8.46313 6.96032 8.52203 7.05849 8.54816 7.1673C8.57739 7.29057 8.58217 7.41837 8.56223 7.54348C8.53778 7.73814 8.45812 7.92174 8.33266 8.07258C8.25604 8.16316 8.15872 8.23395 8.04895 8.27895C8.04845 8.27947 8.04818 8.28016 8.04818 8.28088C8.04818 8.2816 8.04845 8.28229 8.04895 8.28281L8.24863 8.85902C8.30242 9.01371 8.16426 9.19406 7.99234 9.19406H7.98109C7.93939 9.19529 7.89837 9.18321 7.86399 9.15957C7.8296 9.13593 7.80364 9.10196 7.78984 9.06258L7.54832 8.35945C7.54798 8.35892 7.54751 8.35849 7.54696 8.35818C7.54641 8.35787 7.54579 8.35771 7.54516 8.3577H7.03188C7.03116 8.35773 7.03047 8.35799 7.02991 8.35843C7.02934 8.35887 7.02892 8.35947 7.02871 8.36016L6.94434 8.96063C6.93406 9.02432 6.9019 9.08245 6.85339 9.12499C6.80488 9.16754 6.74305 9.19184 6.67855 9.19371C6.64913 9.19456 6.61988 9.18882 6.59295 9.17691C6.56603 9.16501 6.5421 9.14723 6.52293 9.12489C6.50376 9.10255 6.48982 9.07621 6.48213 9.04778C6.47445 9.01936 6.47321 8.98958 6.47852 8.96063L6.75766 6.97359C6.76872 6.90632 6.80282 6.84498 6.85413 6.80009C6.90544 6.75519 6.97076 6.72953 7.03891 6.7275H7.83344C7.83344 6.7275 8.18219 6.7166 8.37941 6.88605ZM10.5661 6.94441C10.5566 7.00391 10.5266 7.05821 10.4812 7.09794C10.4359 7.13767 10.3782 7.16034 10.3179 7.16203H9.39367C9.39296 7.16207 9.39227 7.16233 9.3917 7.16277C9.39114 7.16321 9.39072 7.16381 9.39051 7.16449L9.31703 7.68621C9.31692 7.68663 9.31691 7.68708 9.317 7.6875C9.31709 7.68793 9.31728 7.68833 9.31756 7.68867C9.31783 7.68901 9.31818 7.68929 9.31858 7.68947C9.31897 7.68965 9.31941 7.68974 9.31984 7.68973H10.0377C10.0652 7.68891 10.0926 7.69425 10.1177 7.70536C10.1429 7.71647 10.1652 7.73305 10.1832 7.75391C10.2011 7.77477 10.2141 7.79937 10.2213 7.82592C10.2285 7.85247 10.2297 7.88029 10.2248 7.90734C10.2152 7.96684 10.1852 8.02114 10.1399 8.06087C10.0946 8.1006 10.0368 8.12327 9.97656 8.12496H9.25832C9.2576 8.125 9.25692 8.12526 9.25635 8.1257C9.25579 8.12614 9.25537 8.12674 9.25516 8.12742L9.16691 8.75531C9.16691 8.75619 9.16723 8.75703 9.16782 8.75768C9.1684 8.75833 9.16921 8.75874 9.17008 8.75883H10.0936C10.1211 8.75801 10.1485 8.76336 10.1736 8.77446C10.1988 8.78557 10.2211 8.80216 10.2391 8.82302C10.257 8.84387 10.27 8.86848 10.2772 8.89502C10.2844 8.92157 10.2856 8.94939 10.2807 8.97645C10.2711 9.03595 10.2411 9.09025 10.1958 9.12997C10.1505 9.1697 10.0927 9.19237 10.0325 9.19406H8.88637C8.85544 9.1945 8.8248 9.18812 8.79662 9.1754C8.76843 9.16267 8.74338 9.1439 8.72326 9.12042C8.70313 9.09694 8.68841 9.06932 8.68015 9.03952C8.67188 9.00972 8.67027 8.97846 8.67543 8.94797L8.95281 6.975C8.96387 6.90773 8.99798 6.84639 9.04929 6.8015C9.10059 6.7566 9.16592 6.73094 9.23406 6.72891H10.3798C10.407 6.72826 10.4341 6.73365 10.459 6.74468C10.4838 6.75571 10.506 6.77211 10.5238 6.79271C10.5416 6.81331 10.5546 6.83759 10.562 6.86382C10.5693 6.89005 10.5707 6.91757 10.5661 6.94441ZM12.486 6.94441C12.4765 7.00391 12.4464 7.05821 12.4011 7.09794C12.3558 7.13767 12.2981 7.16034 12.2378 7.16203H11.3136C11.3128 7.16207 11.3122 7.16233 11.3116 7.16277C11.311 7.16321 11.3106 7.16381 11.3104 7.16449L11.2373 7.68621C11.2372 7.68663 11.2371 7.68708 11.2372 7.6875C11.2373 7.68793 11.2375 7.68833 11.2378 7.68867C11.2381 7.68901 11.2384 7.68929 11.2388 7.68947C11.2392 7.68965 11.2396 7.68974 11.2401 7.68973H11.958C11.9855 7.68891 12.0128 7.69425 12.038 7.70536C12.0631 7.71647 12.0855 7.73305 12.1034 7.75391C12.1213 7.77477 12.1344 7.79937 12.1416 7.82592C12.1488 7.85247 12.1499 7.88029 12.145 7.90734C12.1354 7.96684 12.1054 8.02114 12.0601 8.06087C12.0148 8.1006 11.957 8.12327 11.8968 8.12496H11.1782C11.1775 8.125 11.1768 8.12526 11.1762 8.1257C11.1757 8.12614 11.1753 8.12674 11.175 8.12742L11.0868 8.75531C11.0868 8.75619 11.0871 8.75703 11.0877 8.75768C11.0883 8.75833 11.0891 8.75874 11.09 8.75883H12.0135C12.041 8.75801 12.0683 8.76336 12.0935 8.77446C12.1187 8.78557 12.141 8.80216 12.159 8.82302C12.1769 8.84387 12.1899 8.86848 12.1971 8.89502C12.2043 8.92157 12.2055 8.94939 12.2005 8.97645C12.191 9.03595 12.161 9.09025 12.1157 9.12997C12.0703 9.1697 12.0126 9.19237 11.9523 9.19406H10.8062C10.7753 9.1945 10.7447 9.18812 10.7165 9.1754C10.6883 9.16267 10.6633 9.1439 10.6431 9.12042C10.623 9.09694 10.6083 9.06932 10.6 9.03952C10.5918 9.00972 10.5902 8.97846 10.5953 8.94797L10.8727 6.975C10.8838 6.90773 10.9179 6.84639 10.9692 6.8015C11.0205 6.7566 11.0858 6.73094 11.1539 6.72891H12.2997C12.3269 6.72826 12.3539 6.73365 12.3788 6.74468C12.4037 6.75571 12.4259 6.77211 12.4437 6.79271C12.4615 6.81331 12.4745 6.83759 12.4818 6.86382C12.4892 6.89005 12.4906 6.91757 12.486 6.94441ZM13.822 6.71906C14.1359 6.71906 14.5423 6.72328 14.9501 6.72996C15.4444 6.73805 15.8768 6.96516 16.1363 7.35258C16.4134 7.77037 16.6625 8.2061 16.882 8.65688C16.998 8.89313 16.7846 9.20074 16.5051 9.20074H13.508L13.822 6.71906Z" fill="#16A34A"/>
    <path d="M7.64141 7.92519H7.08594L7.19141 7.16441H7.74652C7.74652 7.16441 8.15398 7.13804 8.08719 7.5448C8.08895 7.5448 8.04219 7.92519 7.64141 7.92519Z" fill="#16A34A"/>
  </g>
  <defs>
    <clipPath id="clip0_16_217">
      <rect width="28" height="28" fill="white" transform="translate(0 0.5)"/>
    </clipPath>
  </defs>
</svg>