<svg xmlns="http://www.w3.org/2000/svg" width="28" height="29" viewBox="0 0 18 19" fill="none">
  <path fill-rule="evenodd" clip-rule="evenodd" d="M5.16541 1.9375H6.09852C6.16673 2.51241 6.65579 2.95826 7.24905 2.95826C7.84231 2.95826 8.33133 2.51241 8.39953 1.9375H9.33265C9.31785 2.65996 9.53593 3.40742 10.0079 3.9637L9.82396 8.94491L10.7325 15.2721H3.76562L4.67413 8.94491L4.4902 3.96366C4.96213 3.40742 5.18021 2.65996 5.16541 1.9375Z" fill="#DFBDF0"/>
  <path fill-rule="evenodd" clip-rule="evenodd" d="M9.90352 17.0594H15.8599C16.0644 17.0594 16.2404 16.9795 16.3749 16.8256C16.5095 16.6716 16.5652 16.4866 16.5379 16.2839L15.9872 12.1944C15.9412 11.8528 15.6539 11.6016 15.3092 11.6016H10.4542C10.1095 11.6016 9.82217 11.8528 9.77618 12.1944L9.2255 16.2839C9.19821 16.4866 9.2539 16.6717 9.38852 16.8256C9.52306 16.9795 9.69905 17.0594 9.90352 17.0594Z" fill="#FFD266"/>
  <path fill-rule="evenodd" clip-rule="evenodd" d="M15.7957 6.3554L15.4981 6.96125L16.9074 8.6073C15.3889 9.26064 13.8943 8.69308 12.4235 6.90465C10.5286 6.5296 8.95422 6.25264 8.57031 4.51212L10.7345 4.62139L11.0321 4.01554C11.6782 2.7001 13.2684 2.15753 14.5838 2.80367C15.8993 3.44977 16.4418 5.03996 15.7957 6.3554Z" fill="#DFBDF0"/>
  <path fill-rule="evenodd" clip-rule="evenodd" d="M10.7436 4.61398L11.0413 4.00781L15.8073 6.34834L15.5096 6.9545L10.7436 4.61398ZM7.70451 8.25314L5.79844 11.5546C5.51322 12.0486 4.87763 12.2189 4.38361 11.9337L1.61116 10.333C1.11714 10.0478 0.946809 9.41217 1.23203 8.91816L3.13813 5.6167C3.30242 5.33211 3.56286 5.15595 3.88816 5.10929L5.90324 4.82045C6.38207 4.75182 6.83161 5.01138 7.01158 5.46036L7.76895 7.34991C7.89119 7.65489 7.86883 7.96859 7.70451 8.25314ZM6.17581 5.62809C5.94979 5.49759 5.66081 5.57504 5.53031 5.80106C5.39981 6.02708 5.47726 6.31607 5.70327 6.44657C5.92929 6.57703 6.21828 6.49962 6.34878 6.2736C6.47924 6.04758 6.40179 5.75859 6.17581 5.62809Z" fill="#FD4755"/>
  <path fill-rule="evenodd" clip-rule="evenodd" d="M3.56685 7.5387C3.61128 7.46002 3.68536 7.4037 3.77262 7.38018C3.81579 7.36829 3.86091 7.36518 3.9053 7.37103C3.9497 7.37688 3.99247 7.39158 4.03109 7.41425C4.19407 7.50808 4.25004 7.71663 4.15621 7.87912C4.11012 7.9578 4.03769 8.01444 3.94878 8.03796C3.86152 8.06122 3.7686 8.04897 3.69035 8.00389C3.65153 7.98174 3.61754 7.95203 3.5904 7.91652C3.56325 7.88101 3.54351 7.84041 3.53232 7.79714C3.50923 7.70925 3.52076 7.61738 3.56685 7.5387ZM3.51418 8.30827C3.61926 8.36904 3.73849 8.40106 3.85987 8.40112C3.9208 8.40112 3.98004 8.39339 4.04096 8.37757C4.21875 8.32933 4.36855 8.21511 4.46073 8.05494C4.65166 7.7244 4.53811 7.30034 4.20722 7.10955C4.12856 7.06399 4.04167 7.03444 3.95154 7.0226C3.86142 7.01077 3.76984 7.01687 3.68209 7.04057C3.50265 7.08832 3.3545 7.20303 3.26232 7.36289C3.21673 7.44156 3.18715 7.52847 3.17528 7.61861C3.16341 7.70876 3.16949 7.80037 3.19317 7.88816C3.24091 8.06679 3.3545 8.21592 3.51418 8.30827ZM4.61711 10.2507C4.45412 10.1569 4.39815 9.94835 4.49198 9.78554C4.55453 9.67655 4.66977 9.61549 4.78828 9.61549C4.8459 9.61549 4.90349 9.63015 4.95784 9.66109C5.11917 9.75509 5.17514 9.9635 5.08131 10.1263C5.03623 10.2043 4.96201 10.2613 4.87497 10.2846C4.78792 10.3079 4.69517 10.2957 4.61711 10.2507ZM5.38583 10.3021C5.57677 9.97155 5.46321 9.54718 5.13232 9.3567C4.80308 9.16577 4.37839 9.27932 4.18743 9.60986C3.99649 9.94026 4.11005 10.3643 4.44094 10.5551C4.54592 10.616 4.66523 10.648 4.78663 10.6476C5.02534 10.6476 5.25744 10.5235 5.38583 10.3021ZM5.6064 8.29527C5.69036 8.24686 5.71834 8.13921 5.6706 8.05508C5.6212 7.97113 5.51422 7.94198 5.43027 7.99088L3.04172 9.36968C2.95777 9.41823 2.92813 9.52573 2.97752 9.60983C2.99317 9.63655 3.01553 9.65873 3.04238 9.67414C3.06924 9.68956 3.09966 9.69769 3.13063 9.69772C3.16128 9.69752 3.19135 9.68935 3.21789 9.67402L5.6064 8.29527ZM5.67882 5.89191C5.71834 5.82311 5.78254 5.77421 5.85991 5.75347C5.88514 5.74666 5.91116 5.74323 5.93729 5.74327C5.98834 5.74327 6.03935 5.75709 6.08379 5.78346C6.22702 5.86495 6.27476 6.04716 6.19246 6.18874C6.11181 6.33045 5.92907 6.37904 5.78749 6.29737C5.71834 6.25771 5.6706 6.19366 5.64922 6.11713C5.62946 6.04038 5.63934 5.96054 5.67882 5.89191ZM5.61136 6.60189C5.70951 6.65838 5.82074 6.68817 5.93399 6.68831C6.15951 6.68831 6.37682 6.57226 6.49698 6.36452C6.67642 6.05486 6.5694 5.65749 6.25996 5.4789C5.95048 5.29995 5.55377 5.40648 5.37434 5.71627C5.28872 5.86528 5.26563 6.04215 5.31014 6.20814C5.35454 6.37538 5.46156 6.51495 5.61136 6.60189ZM12.8988 7.18018C14.0939 7.42873 15.3779 7.7662 16.5401 8.55901C15.3104 8.95339 14.112 8.49988 12.8988 7.18018ZM8.80485 4.70061C9.2378 6.09652 10.6205 6.36948 12.3473 6.71039C13.5111 6.94034 14.7968 7.19452 16.0182 7.8362L15.391 7.10382L10.6929 4.79578L8.80485 4.70061ZM9.65099 8.77297H7.60482L7.85338 8.34382C8.04596 8.01047 8.07233 7.64488 7.9291 7.28734L7.17187 5.39772C7.07106 5.14546 6.8883 4.93446 6.653 4.79869C6.41771 4.66291 6.14357 4.61026 5.87471 4.64921L4.69445 4.81877L4.66481 4.02797C5.07635 3.51781 5.31503 2.83336 5.33809 2.11729H5.94879C6.09036 2.7089 6.62372 3.13788 7.24595 3.13788C7.86818 3.13788 8.40153 2.7089 8.54311 2.11729H9.15546C9.17687 2.83336 9.4172 3.51781 9.82709 4.02797L9.81394 4.39967L8.58262 4.33745C8.52831 4.33463 8.47561 4.35784 8.4394 4.39967C8.40319 4.44151 8.39 4.49744 8.40154 4.55081C8.59743 5.43773 9.08139 5.96796 9.74148 6.32089L9.65099 8.77297ZM10.0164 11.5441L9.66906 9.1246H7.40232L5.94714 11.6453C5.7858 11.9249 5.52407 12.1252 5.21132 12.209C5.10595 12.237 5.00059 12.2512 4.89526 12.2512C4.72068 12.2511 4.54823 12.2129 4.38989 12.1394L3.9652 15.1001H9.20816L9.60325 12.1707C9.63946 11.8982 9.79583 11.6731 10.0164 11.5441ZM11.1555 11.7772V12.8052C11.1555 12.9021 11.2346 12.981 11.3317 12.981C11.4288 12.981 11.5078 12.9021 11.5078 12.8052V11.7772H14.2585V12.8052C14.2585 12.8519 14.2771 12.8967 14.3101 12.9297C14.3431 12.9628 14.3879 12.9813 14.4346 12.9813C14.4813 12.9813 14.5261 12.9628 14.5592 12.9297C14.5922 12.8967 14.6108 12.8519 14.6108 12.8052V11.7772H15.3104C15.5672 11.7772 15.7795 11.962 15.8141 12.2177L16.3656 16.307C16.3853 16.459 16.3441 16.5943 16.2437 16.7097C16.1433 16.8249 16.0149 16.8833 15.8618 16.8833H9.90446C9.75136 16.8833 9.62297 16.8249 9.52256 16.7097C9.4205 16.5943 9.38099 16.459 9.40075 16.307L9.95221 12.2177C9.98676 11.962 10.1975 11.7772 10.4559 11.7772H11.1555ZM11.5078 11.017C11.5078 10.2585 12.1251 9.64147 12.8824 9.64147C13.6413 9.64147 14.2586 10.2584 14.2586 11.017V11.4256H11.5079V11.017H11.5078ZM1.29516 9.66105C1.35608 9.88363 1.49766 10.0693 1.69516 10.1835L4.46727 11.7842C4.66646 11.8988 4.89857 11.9291 5.12079 11.8697C5.34301 11.8098 5.52902 11.6679 5.64261 11.4695L7.54886 8.168C7.68547 7.93143 7.70358 7.67202 7.60152 7.41819L6.84429 5.52889C6.71094 5.19406 6.4015 4.98815 6.0525 4.98815C6.01133 4.98815 5.96855 4.99128 5.92411 4.99719L3.90923 5.28624C3.63927 5.32491 3.42362 5.47078 3.287 5.70731L1.38076 9.00897C1.26721 9.20722 1.23592 9.439 1.29516 9.66105ZM12.6173 2.84113C13.2428 2.62745 13.9161 2.67058 14.5087 2.96245C15.6824 3.53859 16.1976 4.92512 15.712 6.11807L11.2774 3.93909C11.577 3.42303 12.0461 3.03586 12.6173 2.84113ZM15.4207 6.72698L10.9728 4.54205L11.1161 4.25166L15.5639 6.43663L15.4207 6.72698ZM17.0438 8.49397L15.7104 6.93574L15.9574 6.43381C16.6438 5.03343 16.0643 3.33479 14.6651 2.64671C13.9869 2.31336 13.2182 2.26463 12.5037 2.50858C11.7877 2.75253 11.2099 3.26054 10.8773 3.93874L10.6304 4.44063L10.1646 4.41707L10.181 3.97375C10.1826 3.93009 10.1679 3.8874 10.1399 3.85391C9.72176 3.36172 9.49131 2.66605 9.50611 1.94489C9.50622 1.89765 9.48791 1.85224 9.45506 1.81829C9.43879 1.80159 9.41933 1.78832 9.39784 1.77927C9.37635 1.77023 9.35326 1.76559 9.32994 1.76563H8.39661C8.30774 1.76563 8.23201 1.83214 8.22213 1.9207C8.16286 2.41422 7.74475 2.78625 7.24598 2.78625C6.74884 2.78625 6.32907 2.41422 6.26984 1.9207C6.25996 1.83214 6.18423 1.76563 6.09536 1.76563H5.16199C5.1387 1.76575 5.11566 1.77046 5.09419 1.7795C5.07272 1.78854 5.05324 1.80172 5.03687 1.81829C5.00403 1.85224 4.98571 1.89765 4.98582 1.94489C5.00062 2.66605 4.77018 3.36172 4.35371 3.85391C4.32573 3.8873 4.30928 3.93027 4.31093 3.97375L4.34549 4.86859L3.85987 4.93823C3.47797 4.99272 3.17507 5.198 2.98248 5.53149L1.07624 8.83316C0.914906 9.11268 0.872121 9.43925 0.956074 9.75203C1.04003 10.0653 1.24084 10.3265 1.52068 10.4879L4.06234 11.9557L3.58826 15.251C3.58495 15.2759 3.58691 15.3013 3.594 15.3254C3.60109 15.3496 3.61315 15.372 3.62943 15.3912C3.66398 15.4296 3.71173 15.4516 3.76277 15.4516H9.16211L9.05182 16.2602C9.01891 16.5134 9.08968 16.7486 9.25759 16.9409C9.4255 17.1332 9.64937 17.2347 9.90453 17.2347H15.8619C16.1171 17.2347 16.3409 17.1332 16.5088 16.9409C16.6768 16.7486 16.7475 16.5131 16.713 16.2602L16.1632 12.1705C16.1039 11.7388 15.7467 11.4255 15.3105 11.4255H14.6109V11.0169C14.6109 10.0646 13.8355 9.2898 12.8824 9.2898C11.9309 9.2898 11.1556 10.0646 11.1556 11.0169V11.4255H10.456C10.4214 11.4255 10.3885 11.428 10.3556 11.4314L9.99671 8.93936L10.0872 6.48366C10.721 6.74737 11.4766 6.89668 12.2782 7.05538C12.2964 7.05882 12.3145 7.0623 12.3326 7.06592C13.4289 8.38382 14.5565 9.04589 15.6989 9.04589C16.1236 9.04589 16.5516 8.95402 16.9796 8.77033V8.76952C17.002 8.76024 17.0222 8.74633 17.0389 8.72871C17.0998 8.66335 17.1031 8.5621 17.0438 8.49397Z" fill="black"/>
</svg>