
<svg xmlns="http://www.w3.org/2000/svg" width="28" height="29" viewBox="0 0 18 19" fill="none">
  <g clip-path="url(#clip0_16_199)">
    <path d="M15.6989 7.91202V18.1275H2.29688V7.91202L9.03566 1.375L15.6989 7.91202Z" fill="#E9EAEF"/>
    <path d="M12.4219 4.3011V2.41412H15.7724V7.49192" fill="#9EB1B7"/>
    <path d="M9.6399 15.9844H17.731V18.1251H9.6399V15.9844ZM0.265625 15.9844H3.10214V18.1251H0.265625V15.9844Z" fill="#85C10D"/>
    <path d="M15.6989 8.307V10.2164L8.99787 3.81843L2.29688 10.2164V8.307L8.46571 2.4319L8.99787 1.9375L9.52968 2.4319L15.6989 8.307Z" fill="#D2D4D8"/>
    <path d="M9.00104 2.756L1.3715 10.0401L0.304688 9.14459L8.46906 1.36916L9.00104 0.875L9.53299 1.36916L17.6974 9.14459L16.6305 10.0401L9.00104 2.756Z" fill="#EA4756"/>
    <path d="M3.9375 10.4688H8.35731V18.1225H3.9375V10.4688Z" fill="#C97523"/>
    <path d="M9.64062 10.4688H14.6738V14.8886H9.64062V10.4688Z" fill="#A0D9F2"/>
    <path d="M9.64062 10.4688H14.6738V11.8118H9.64062V10.4688Z" fill="#C97523"/>
    <path d="M8.99525 8.28737C9.67435 8.28737 10.2249 7.73685 10.2249 7.05775C10.2249 6.37865 9.67435 5.82812 8.99525 5.82812C8.31615 5.82812 7.76562 6.37865 7.76562 7.05775C7.76562 7.73685 8.31615 8.28737 8.99525 8.28737Z" fill="#413740"/>
    <path d="M9.375 10.4705V14.8903C9.375 14.9612 9.40317 15.0292 9.4533 15.0793C9.50343 15.1294 9.57143 15.1576 9.64233 15.1576H14.6754C14.8231 15.1576 14.9427 15.0379 14.9427 14.8903V10.4705C14.9427 10.3996 14.9146 10.3316 14.8644 10.2814C14.8143 10.2313 14.7463 10.2031 14.6754 10.2031H9.64233C9.60722 10.2031 9.57246 10.21 9.54002 10.2235C9.50759 10.2369 9.47811 10.2566 9.45329 10.2814C9.42846 10.3062 9.40877 10.3357 9.39534 10.3681C9.38191 10.4006 9.375 10.4353 9.375 10.4705ZM9.90966 14.6229V12.0808H14.4081V14.6229H9.90966ZM14.4081 10.7378V11.5462H9.90966V10.7378H14.4081Z" fill="black"/>
    <path d="M17.7327 15.7154H15.9684V9.7803L16.4449 10.2352C16.4946 10.2828 16.5608 10.3093 16.6295 10.3092C16.6905 10.3092 16.7515 10.2884 16.8014 10.2466L17.8624 9.35599C17.8982 9.32594 17.928 9.28856 17.9449 9.24504C17.9645 9.19546 17.9689 9.14115 17.9575 9.08908C17.946 9.037 17.9193 8.98952 17.8807 8.95272L16.0397 7.19944V4.669C16.0386 4.59885 16.0099 4.53196 15.9599 4.48275C15.9099 4.43355 15.8426 4.40597 15.7724 4.40597C15.7022 4.40597 15.6349 4.43355 15.5849 4.48275C15.5349 4.53196 15.5062 4.59885 15.5051 4.669V6.69027L12.6892 4.00859V2.68144H15.5051V3.42141C15.5062 3.49156 15.5349 3.55845 15.5849 3.60765C15.6349 3.65686 15.7022 3.68444 15.7724 3.68444C15.8426 3.68444 15.9099 3.65686 15.9599 3.60765C16.0099 3.55845 16.0386 3.49156 16.0397 3.42141V2.41411C16.0397 2.34321 16.0115 2.27522 15.9614 2.22509C15.9113 2.17496 15.8433 2.14679 15.7724 2.14678H12.4219C12.351 2.14679 12.283 2.17496 12.2329 2.22509C12.1827 2.27522 12.1546 2.34321 12.1546 2.41411V3.49938L9.71388 1.17499L9.18193 0.680838C9.13248 0.634904 9.06748 0.609375 8.99998 0.609375C8.93249 0.609375 8.86749 0.634904 8.81803 0.680838L8.28366 1.17728L0.119285 8.95268C0.0806974 8.98948 0.0539736 9.03696 0.0425367 9.08904C0.0310999 9.14112 0.0354709 9.19543 0.0550898 9.24501C0.0720703 9.28853 0.101848 9.3259 0.137637 9.35596L1.19862 10.2466C1.24902 10.2889 1.31326 10.3111 1.37904 10.309C1.44481 10.3069 1.5075 10.2807 1.5551 10.2352L2.03182 9.78005V11.5298C2.03296 11.6 2.06162 11.6669 2.11163 11.7161C2.16164 11.7653 2.22899 11.7928 2.29915 11.7928C2.36931 11.7928 2.43665 11.7653 2.48666 11.7161C2.53667 11.6669 2.56534 11.6 2.56648 11.5298V9.26958L9 3.12726L15.4338 9.26983V15.7154H9.64171C9.57081 15.7154 9.50282 15.7436 9.45269 15.7937C9.40256 15.8438 9.37439 15.9118 9.37438 15.9827V17.856H8.62587V10.4696C8.62586 10.3987 8.59769 10.3307 8.54756 10.2806C8.49743 10.2305 8.42944 10.2023 8.35854 10.2023H3.93873C3.86783 10.2023 3.79984 10.2305 3.74971 10.2806C3.69958 10.3307 3.67141 10.3987 3.6714 10.4696V17.856H3.37099V15.9827C3.37098 15.9118 3.34281 15.8438 3.29268 15.7937C3.24255 15.7436 3.17456 15.7154 3.10366 15.7154H2.56644V12.7774C2.5653 12.7073 2.53664 12.6404 2.48663 12.5912C2.43662 12.542 2.36927 12.5144 2.29911 12.5144C2.22896 12.5144 2.16161 12.542 2.1116 12.5912C2.06159 12.6404 2.03292 12.7073 2.03179 12.7774V15.7154H0.267328C0.196431 15.7154 0.128441 15.7436 0.0783089 15.7937C0.0281772 15.8438 9.3218e-06 15.9118 0 15.9827L0 18.1234C9.3218e-06 18.1943 0.0281772 18.2623 0.0783089 18.3124C0.128441 18.3625 0.196431 18.3907 0.267328 18.3907H3.10366L3.10433 18.3907H9.64097L9.64164 18.3907H17.7327C17.8036 18.3907 17.8716 18.3625 17.9217 18.3124C17.9718 18.2623 18 18.1943 18 18.1234V15.9827C18 15.9476 17.9931 15.9129 17.9797 15.8804C17.9662 15.848 17.9465 15.8185 17.9217 15.7937C17.8969 15.7689 17.8674 15.7492 17.835 15.7357C17.8025 15.7223 17.7678 15.7154 17.7327 15.7154ZM9 2.49037C8.93123 2.4903 8.86509 2.5168 8.81539 2.56433L1.35904 9.68319L0.704496 9.1337L8.64998 1.56671L9 1.24155L9.34755 1.56446L17.2955 9.1337L16.6409 9.68319L9.18461 2.5643C9.1349 2.51678 9.06877 2.49029 9 2.49037ZM0.534656 16.25H2.83634V17.856H2.29911V17.856H0.534656V16.25ZM4.20606 17.856V10.7369H8.09121V17.856H4.20606ZM17.4653 17.856H15.7011V17.856H9.90903V16.25H17.4654V17.856H17.4653Z" fill="black"/>
    <path d="M7.48702 14.0096H6.84545C6.77455 14.0096 6.70656 14.0378 6.65642 14.0879C6.60629 14.138 6.57812 14.206 6.57812 14.2769C6.57812 14.3478 6.60629 14.4158 6.65642 14.466C6.70656 14.5161 6.77455 14.5443 6.84545 14.5443H7.48702C7.55792 14.5443 7.62591 14.5161 7.67605 14.466C7.72618 14.4158 7.75435 14.3478 7.75435 14.2769C7.75435 14.206 7.72618 14.138 7.67605 14.0879C7.62591 14.0378 7.55792 14.0096 7.48702 14.0096ZM8.99951 5.5625C8.17408 5.5625 7.50256 6.23402 7.50256 7.05949C7.50256 7.88492 8.17408 8.55644 8.99951 8.55644C9.82494 8.55644 10.4965 7.88492 10.4965 7.05949C10.4965 6.23405 9.82494 5.5625 8.99951 5.5625ZM8.99951 8.02179C8.4689 8.02179 8.03721 7.5901 8.03721 7.05949C8.03721 6.52887 8.4689 6.09716 8.99951 6.09716C9.53012 6.09716 9.96181 6.52884 9.96181 7.05949C9.96181 7.5901 9.53012 8.02179 8.99951 8.02179Z" fill="black"/>
  </g>
  <defs>
    <clipPath id="clip0_16_199">
      <rect width="28" height="28" fill="white" transform="translate(0 0.5)"/>
    </clipPath>
  </defs>
</svg>