<svg xmlns="http://www.w3.org/2000/svg" width="28" height="29" viewBox="0 0 18 19" fill="none">
  <g clip-path="url(#clip0_16_129)">
    <path fill-rule="evenodd" clip-rule="evenodd" d="M2.11725 5.62506H15.8849V16.8779H2.11725V5.62506Z" fill="#ECEFF1"/>
    <path fill-rule="evenodd" clip-rule="evenodd" d="M14.9922 5.62506H15.8856V16.8779H14.9922V5.62506Z" fill="#D1D1D6"/>
    <path fill-rule="evenodd" clip-rule="evenodd" d="M3.65277 9.40631H6.76047C6.94786 9.40631 7.10068 9.55914 7.10068 9.74652V16.3999H3.31256V9.74655C3.31256 9.55917 3.46539 9.40631 3.65277 9.40631Z" fill="#D8ECFE"/>
    <path fill-rule="evenodd" clip-rule="evenodd" d="M6.27777 9.74652V16.3999H7.09431V9.74652C7.09431 9.55913 6.94148 9.40631 6.7541 9.40631H5.93756C6.12494 9.40628 6.27777 9.55913 6.27777 9.74652Z" fill="#C4E2FF"/>
    <path fill-rule="evenodd" clip-rule="evenodd" d="M0.732647 16.4063H17.2674C17.3125 16.4064 17.3557 16.4243 17.3876 16.4562C17.4195 16.4881 17.4374 16.5313 17.4375 16.5764V17.7721C17.4374 17.8172 17.4195 17.8604 17.3876 17.8923C17.3557 17.9242 17.3125 17.9421 17.2674 17.9422H0.732647C0.687563 17.9421 0.64435 17.9242 0.61247 17.8923C0.580591 17.8604 0.562645 17.8172 0.562561 17.7721V16.5764C0.562635 16.5313 0.580578 16.4881 0.612458 16.4562C0.644338 16.4243 0.687557 16.4064 0.732647 16.4063Z" fill="#A79BA7"/>
    <path fill-rule="evenodd" clip-rule="evenodd" d="M17.4376 17.1719V17.7698C17.4375 17.8149 17.4195 17.8581 17.3877 17.8899C17.3558 17.9218 17.3126 17.9398 17.2675 17.9399H0.732647C0.687563 17.9398 0.64435 17.9218 0.61247 17.8899C0.580591 17.8581 0.562645 17.8149 0.562561 17.7698V17.1719H17.4376Z" fill="#837683"/>
    <path fill-rule="evenodd" clip-rule="evenodd" d="M0.703186 5.62876L2.98873 1.24548C3.04885 1.13017 3.16036 1.06256 3.2904 1.06256H14.7067C14.8367 1.06256 14.9483 1.13017 15.0084 1.24548L17.2939 5.62876C17.2939 6.77412 16.3655 7.70259 15.2201 7.70259C14.0747 7.70259 13.1462 6.77412 13.1462 5.62876C13.1462 6.77412 12.2178 7.70259 11.0724 7.70259C9.92703 7.70259 8.99855 6.77412 8.99855 5.62876C8.99855 6.77412 8.07007 7.70259 6.92472 7.70259C5.77936 7.70259 4.85085 6.77412 4.85085 5.62876C4.85085 6.77412 3.92241 7.70259 2.77702 7.70259C1.63163 7.70259 0.703186 6.77415 0.703186 5.62876Z" fill="#FFE177"/>
    <path fill-rule="evenodd" clip-rule="evenodd" d="M2.77702 7.69889C3.92241 7.69889 4.85085 6.77042 4.85085 5.62506H0.703186C0.703186 6.53884 1.29413 7.31457 2.11471 7.59089C2.32814 7.66266 2.55185 7.69914 2.77702 7.69889ZM8.99855 5.62506C8.99855 6.77042 9.92703 7.69889 11.0724 7.69889C12.2177 7.69889 13.1462 6.77042 13.1462 5.62506H8.99855Z" fill="#FFD064"/>
    <path fill-rule="evenodd" clip-rule="evenodd" d="M17.2946 5.62876L15.0091 1.24548C14.949 1.13017 14.8375 1.06256 14.7074 1.06256H11.9436L13.147 5.62876C13.147 6.77412 14.0754 7.70259 15.2208 7.70259C15.446 7.70282 15.6697 7.66635 15.8831 7.59459C16.7037 7.31826 17.2946 6.54254 17.2946 5.62876ZM6.92549 7.70259C8.07085 7.70259 8.99932 6.77412 8.99932 5.62876V1.0626H6.05502L4.85162 5.6288C4.85162 6.77415 5.7801 7.70259 6.92549 7.70259Z" fill="#F97316"/>
    <path fill-rule="evenodd" clip-rule="evenodd" d="M13.147 5.62506C13.147 6.77042 14.0754 7.69889 15.2208 7.69889C15.446 7.69912 15.6697 7.66265 15.8831 7.59089C16.7037 7.31453 17.2946 6.53884 17.2946 5.62506H13.147ZM6.92549 7.69889C8.07085 7.69889 8.99932 6.77042 8.99932 5.62506H4.85162C4.85162 6.77045 5.7801 7.69889 6.92549 7.69889Z" fill="#F97316"/>
    <path fill-rule="evenodd" clip-rule="evenodd" d="M8.56256 9.40631H14.4137C14.5299 9.40631 14.6247 9.50106 14.6247 9.61725V14.1877C14.6247 14.3039 14.5299 14.3986 14.4137 14.3986H8.56256C8.44637 14.3986 8.35162 14.3039 8.35162 14.1877V9.61725C8.35162 9.50109 8.4464 9.40631 8.56256 9.40631Z" fill="#D8ECFE"/>
    <path fill-rule="evenodd" clip-rule="evenodd" d="M14.0626 9.40631H14.4141C14.5303 9.40631 14.6251 9.50106 14.6251 9.61725V14.1877C14.6251 14.3039 14.5303 14.3986 14.4141 14.3986H14.0626C14.1788 14.3986 14.2735 14.3039 14.2735 14.1877V9.61725C14.2735 9.50109 14.1788 9.40631 14.0626 9.40631Z" fill="#C4E2FF"/>
    <path d="M11.4862 13.7223C12.4881 13.7223 13.3004 12.91 13.3004 11.908C13.3004 10.9061 12.4881 10.0938 11.4862 10.0938C10.4842 10.0938 9.67194 10.9061 9.67194 11.908C9.67194 12.91 10.4842 13.7223 11.4862 13.7223Z" fill="#8AC9FE"/>
    <path fill-rule="evenodd" clip-rule="evenodd" d="M11.4928 10.0938C12.4948 10.0938 13.3071 10.9061 13.3071 11.908C13.3071 12.91 12.4948 13.7223 11.4928 13.7223C11.4186 13.7223 11.3454 13.7177 11.2735 13.7091C12.172 13.6008 12.8684 12.8358 12.8684 11.908C12.8684 10.9803 12.1721 10.2153 11.2735 10.107C11.3463 10.0982 11.4195 10.0938 11.4928 10.0938Z" fill="#60B7FF"/>
    <path fill-rule="evenodd" clip-rule="evenodd" d="M12.5515 11.1667C12.5764 11.1941 12.5956 11.2261 12.6081 11.2608C12.6205 11.2956 12.626 11.3325 12.6242 11.3694C12.6224 11.4063 12.6134 11.4425 12.5976 11.4759C12.5818 11.5093 12.5596 11.5393 12.5322 11.5641L11.3239 12.6605C11.2723 12.7078 11.2049 12.7339 11.135 12.7338C11.0604 12.7338 10.9889 12.7042 10.9361 12.6514L10.4385 12.154C10.4124 12.1279 10.3916 12.0969 10.3774 12.0627C10.3633 12.0286 10.356 11.992 10.356 11.955C10.356 11.9181 10.3633 11.8815 10.3774 11.8473C10.3916 11.8132 10.4124 11.7822 10.4385 11.756C10.4913 11.7033 10.5628 11.6738 10.6373 11.6738C10.7119 11.6738 10.7834 11.7033 10.8362 11.756L11.1446 12.064L12.1542 11.1476C12.2692 11.0435 12.4471 11.0519 12.5515 11.1667ZM11.4905 13.4372C12.3358 13.4372 13.0233 12.7495 13.0233 11.9041C13.0233 11.0589 12.3358 10.3713 11.4905 10.3713C10.6449 10.3713 9.95737 11.0589 9.95737 11.9041C9.95737 12.7495 10.6449 13.4372 11.4905 13.4372ZM11.4905 9.80884C10.335 9.80884 9.3949 10.7487 9.3949 11.9041C9.3949 13.0596 10.335 13.9997 11.4905 13.9997C12.6457 13.9997 13.5858 13.0596 13.5858 11.9041C13.5857 10.7488 12.6457 9.80884 11.4905 9.80884ZM8.63503 9.68938V14.1192H14.3456V9.68938H8.63503ZM8.35389 14.6816H14.6267C14.7821 14.6816 14.9081 14.5555 14.9081 14.4005V9.40806C14.9081 9.37111 14.9008 9.33453 14.8867 9.3004C14.8725 9.26626 14.8518 9.23525 14.8257 9.20912C14.7996 9.183 14.7685 9.16228 14.7344 9.14814C14.7003 9.13401 14.6637 9.12673 14.6267 9.12674H8.35389C8.31694 9.12673 8.28036 9.13401 8.24623 9.14814C8.21209 9.16228 8.18108 9.183 8.15496 9.20912C8.12883 9.23525 8.10811 9.26626 8.09397 9.3004C8.07984 9.33453 8.07256 9.37111 8.07257 9.40806V14.4005C8.07257 14.5555 8.1985 14.6816 8.35389 14.6816ZM17.1562 17.6562H0.843741V16.6828H17.1562V17.6562ZM6.8158 16.1203H3.59015V9.7483C3.59028 9.73274 3.5965 9.71786 3.60748 9.70684C3.61847 9.69582 3.63334 9.68955 3.64889 9.68938H6.75671C6.78866 9.68938 6.81577 9.71634 6.81577 9.7483L6.8158 16.1203ZM2.3974 7.95252V16.1203H3.02768V9.7483C3.02768 9.4056 3.30651 9.12677 3.64889 9.12677H6.75671C7.09958 9.12677 7.37823 9.4056 7.37823 9.7483V16.1203H15.6027V7.95252C15.4786 7.97287 15.3514 7.98381 15.2216 7.98381C14.3261 7.98381 13.546 7.4816 13.1477 6.74406C12.7494 7.4816 11.9692 7.98381 11.074 7.98381C10.1784 7.98381 9.39835 7.4816 9.00006 6.74406C8.60178 7.4816 7.82152 7.98381 6.92612 7.98381C6.03073 7.98381 5.25068 7.4816 4.85222 6.74406C4.4539 7.4816 3.67385 7.98381 2.77846 7.98381C2.64877 7.98381 2.5215 7.97291 2.3974 7.95252ZM1.00873 5.9099H4.54893C4.41358 6.76526 3.67143 7.42138 2.77849 7.42138C1.88574 7.42138 1.14408 6.76526 1.00873 5.9099ZM3.23967 1.37552C3.25124 1.35302 3.2665 1.34374 3.29213 1.34374H5.6907L4.6358 5.34744H1.16858L3.23967 1.37552ZM14.7603 1.37552L16.8314 5.34744H13.3643L12.3092 1.34374H14.7083C14.7337 1.34374 14.7487 1.35302 14.7603 1.37552ZM12.8444 5.9099C12.7091 6.76526 11.9666 7.42138 11.074 7.42138C10.1812 7.42138 9.43878 6.76526 9.30339 5.9099H12.8444ZM8.69659 5.9099C8.56124 6.76526 7.81909 7.42138 6.92616 7.42138C6.03358 7.42138 5.29143 6.76526 5.15608 5.9099H8.69659ZM11.7278 1.34374H9.28124V5.34744H12.7829L11.7278 1.34374ZM8.71878 1.34374H6.27253L5.21728 5.34744H8.71878V1.34374ZM15.2217 7.42138C14.3291 7.42138 13.5866 6.76526 13.4512 5.9099H16.9917C16.856 6.76526 16.1142 7.42138 15.2217 7.42138ZM17.2674 16.1203H16.1652V7.78591C16.9952 7.42138 17.5767 6.59201 17.5767 5.62876C17.5767 5.58341 17.5658 5.5389 17.5448 5.49868L15.2592 1.1154C15.1503 0.906256 14.9443 0.781311 14.7083 0.781311H3.29213C3.05584 0.781311 2.84979 0.906256 2.74077 1.1154L0.45537 5.49868C0.434257 5.53879 0.42324 5.58344 0.423272 5.62876C0.423272 6.59197 1.00476 7.42138 1.8348 7.78591V16.1203H0.732717C0.483846 16.1203 0.281311 16.3228 0.281311 16.5717V17.7674C0.281311 18.0163 0.483846 18.2187 0.732717 18.2187H17.2674C17.5163 18.2187 17.7187 18.0163 17.7187 17.7674V16.5717C17.7187 16.3228 17.5163 16.1203 17.2674 16.1203Z" fill="#242222"/>
  </g>
  <defs>
    <clipPath id="clip0_16_129">
      <rect width="28" height="28" fill="white" transform="translate(0 0.5)"/>
    </clipPath>
  </defs>
</svg>